# Tiled2Unity generated file. Do not modify by hand.
# Wavefront file for 'Test-House_mesh_0002.obj'

# Vertices (Count = 40)
v -80 -96 0
v -96 -96 0
v -96 -80 0
v -80 -80 0
v -160 -112 0
v -176 -112 0
v -176 -96 0
v -160 -96 0
v -144 -112 0
v -160 -112 0
v -160 -96 0
v -144 -96 0
v -160 -128 0
v -176 -128 0
v -176 -112 0
v -160 -112 0
v -144 -128 0
v -160 -128 0
v -160 -112 0
v -144 -112 0
v -64 -128 0
v -80 -128 0
v -80 -112 0
v -64 -112 0
v -112 -160 0
v -128 -160 0
v -128 -144 0
v -112 -144 0
v -96 -160 0
v -112 -160 0
v -112 -144 0
v -96 -144 0
v -80 -160 0
v -96 -160 0
v -96 -144 0
v -80 -144 0
v -144 -176 0
v -160 -176 0
v -160 -160 0
v -144 -160 0

# Texture cooridinates (Count = 40)
vt 0.7376033 0.9695817
vt 0.7541322 0.9695817
vt 0.7541322 1
vt 0.7376033 1
vt 0.2107438 0.7756654
vt 0.2272727 0.7756654
vt 0.2272727 0.8060837
vt 0.2107438 0.8060837
vt 0.2283058 0.8079848
vt 0.2448347 0.8079848
vt 0.2448347 0.838403
vt 0.2283058 0.838403
vt 0.2283058 0.7756654
vt 0.2448347 0.7756654
vt 0.2448347 0.8060837
vt 0.2283058 0.8060837
vt 0.1931818 0.8079848
vt 0.2097107 0.8079848
vt 0.2097107 0.838403
vt 0.1931818 0.838403
vt 0.2283058 0.8726236
vt 0.2448347 0.8726236
vt 0.2448347 0.9030418
vt 0.2283058 0.9030418
vt 0.3863636 0.8403042
vt 0.4028926 0.8403042
vt 0.4028926 0.8707224
vt 0.3863636 0.8707224
vt 0.3863636 0.7756654
vt 0.4028926 0.7756654
vt 0.4028926 0.8060837
vt 0.3863636 0.8060837
vt 0.3688017 0.8403042
vt 0.3853306 0.8403042
vt 0.3853306 0.8707224
vt 0.3688017 0.8707224
vt 0.6663223 0.904943
vt 0.6497934 0.904943
vt 0.6497934 0.9353612
vt 0.6663223 0.9353612

# Normal
vn 0 0 -1

# Mesh description
g Test-House_mesh_0002

# Faces
f 1/1/1 2/2/1 3/3/1 4/4/1
f 5/5/1 6/6/1 7/7/1 8/8/1
f 9/9/1 10/10/1 11/11/1 12/12/1
f 13/13/1 14/14/1 15/15/1 16/16/1
f 17/17/1 18/18/1 19/19/1 20/20/1
f 21/21/1 22/22/1 23/23/1 24/24/1
f 25/25/1 26/26/1 27/27/1 28/28/1
f 29/29/1 30/30/1 31/31/1 32/32/1
f 33/33/1 34/34/1 35/35/1 36/36/1
f 37/37/1 38/38/1 39/39/1 40/40/1

