# Tiled2Unity generated file. Do not modify by hand.
# Wavefront file for 'Test-World_mesh_0004.obj'

# Vertices (Count = 80)
v -1088 -352 0
v -1104 -352 0
v -1104 -336 0
v -1088 -336 0
v -1072 -352 0
v -1088 -352 0
v -1088 -336 0
v -1072 -336 0
v -1056 -352 0
v -1072 -352 0
v -1072 -336 0
v -1056 -336 0
v -1040 -352 0
v -1056 -352 0
v -1056 -336 0
v -1040 -336 0
v -1024 -352 0
v -1040 -352 0
v -1040 -336 0
v -1024 -336 0
v -1088 -368 0
v -1104 -368 0
v -1104 -352 0
v -1088 -352 0
v -1072 -368 0
v -1088 -368 0
v -1088 -352 0
v -1072 -352 0
v -1056 -368 0
v -1072 -368 0
v -1072 -352 0
v -1056 -352 0
v -1040 -368 0
v -1056 -368 0
v -1056 -352 0
v -1040 -352 0
v -1024 -368 0
v -1040 -368 0
v -1040 -352 0
v -1024 -352 0
v -1088 -384 0
v -1104 -384 0
v -1104 -368 0
v -1088 -368 0
v -1072 -384 0
v -1088 -384 0
v -1088 -368 0
v -1072 -368 0
v -1056 -384 0
v -1072 -384 0
v -1072 -368 0
v -1056 -368 0
v -1040 -384 0
v -1056 -384 0
v -1056 -368 0
v -1040 -368 0
v -1024 -384 0
v -1040 -384 0
v -1040 -368 0
v -1024 -368 0
v -1088 -400 0
v -1104 -400 0
v -1104 -384 0
v -1088 -384 0
v -1072 -400 0
v -1088 -400 0
v -1088 -384 0
v -1072 -384 0
v -1056 -400 0
v -1072 -400 0
v -1072 -384 0
v -1056 -384 0
v -1040 -400 0
v -1056 -400 0
v -1056 -384 0
v -1040 -384 0
v -1024 -400 0
v -1040 -400 0
v -1040 -384 0
v -1024 -384 0

# Texture cooridinates (Count = 24)
vt 0.3336777 0.4847909
vt 0.3502066 0.4847909
vt 0.3502066 0.5152091
vt 0.3336777 0.5152091
vt 0.3161157 0.4847909
vt 0.3326446 0.4847909
vt 0.3326446 0.5152091
vt 0.3161157 0.5152091
vt 0.2985537 0.4847909
vt 0.3150826 0.4847909
vt 0.3150826 0.5152091
vt 0.2985537 0.5152091
vt 0.2809917 0.4847909
vt 0.2975207 0.4847909
vt 0.2975207 0.5152091
vt 0.2809917 0.5152091
vt 0.2283058 0.4847909
vt 0.2448347 0.4847909
vt 0.2448347 0.5152091
vt 0.2283058 0.5152091
vt 0.2458678 0.4847909
vt 0.2623967 0.4847909
vt 0.2623967 0.5152091
vt 0.2458678 0.5152091

# Normal
vn 0 0 -1

# Mesh description
g Test-World_mesh_0004

# Faces
f 1/1/1 2/2/1 3/3/1 4/4/1
f 5/5/1 6/6/1 7/7/1 8/8/1
f 9/5/1 10/6/1 11/7/1 12/8/1
f 13/5/1 14/6/1 15/7/1 16/8/1
f 17/9/1 18/10/1 19/11/1 20/12/1
f 21/1/1 22/2/1 23/3/1 24/4/1
f 25/5/1 26/6/1 27/7/1 28/8/1
f 29/5/1 30/6/1 31/7/1 32/8/1
f 33/5/1 34/6/1 35/7/1 36/8/1
f 37/9/1 38/10/1 39/11/1 40/12/1
f 41/1/1 42/2/1 43/3/1 44/4/1
f 45/5/1 46/6/1 47/7/1 48/8/1
f 49/5/1 50/6/1 51/7/1 52/8/1
f 53/5/1 54/6/1 55/7/1 56/8/1
f 57/9/1 58/10/1 59/11/1 60/12/1
f 61/13/1 62/14/1 63/15/1 64/16/1
f 65/17/1 66/18/1 67/19/1 68/20/1
f 69/17/1 70/18/1 71/19/1 72/20/1
f 73/17/1 74/18/1 75/19/1 76/20/1
f 77/21/1 78/22/1 79/23/1 80/24/1

