# Tiled2Unity generated file. Do not modify by hand.
# Wavefront file for 'Test-World_mesh_0002.obj'

# Vertices (Count = 956)
v -1024 -256 0
v -1040 -256 0
v -1040 -240 0
v -1024 -240 0
v -1008 -256 0
v -1024 -256 0
v -1024 -240 0
v -1008 -240 0
v -992 -256 0
v -1008 -256 0
v -1008 -240 0
v -992 -240 0
v -976 -256 0
v -992 -256 0
v -992 -240 0
v -976 -240 0
v -960 -256 0
v -976 -256 0
v -976 -240 0
v -960 -240 0
v -944 -256 0
v -960 -256 0
v -960 -240 0
v -944 -240 0
v -928 -256 0
v -944 -256 0
v -944 -240 0
v -928 -240 0
v -912 -256 0
v -928 -256 0
v -928 -240 0
v -912 -240 0
v -896 -256 0
v -912 -256 0
v -912 -240 0
v -896 -240 0
v -880 -256 0
v -896 -256 0
v -896 -240 0
v -880 -240 0
v -1040 -272 0
v -1056 -272 0
v -1056 -256 0
v -1040 -256 0
v -1024 -272 0
v -1040 -272 0
v -1040 -256 0
v -1024 -256 0
v -1008 -272 0
v -1024 -272 0
v -1024 -256 0
v -1008 -256 0
v -992 -272 0
v -1008 -272 0
v -1008 -256 0
v -992 -256 0
v -976 -272 0
v -992 -272 0
v -992 -256 0
v -976 -256 0
v -960 -272 0
v -976 -272 0
v -976 -256 0
v -960 -256 0
v -944 -272 0
v -960 -272 0
v -960 -256 0
v -944 -256 0
v -928 -272 0
v -944 -272 0
v -944 -256 0
v -928 -256 0
v -912 -272 0
v -928 -272 0
v -928 -256 0
v -912 -256 0
v -896 -272 0
v -912 -272 0
v -912 -256 0
v -896 -256 0
v -880 -272 0
v -896 -272 0
v -896 -256 0
v -880 -256 0
v -1056 -288 0
v -1072 -288 0
v -1072 -272 0
v -1056 -272 0
v -1040 -288 0
v -1056 -288 0
v -1056 -272 0
v -1040 -272 0
v -1024 -288 0
v -1040 -288 0
v -1040 -272 0
v -1024 -272 0
v -1008 -288 0
v -1024 -288 0
v -1024 -272 0
v -1008 -272 0
v -992 -288 0
v -1008 -288 0
v -1008 -272 0
v -992 -272 0
v -976 -288 0
v -992 -288 0
v -992 -272 0
v -976 -272 0
v -960 -288 0
v -976 -288 0
v -976 -272 0
v -960 -272 0
v -944 -288 0
v -960 -288 0
v -960 -272 0
v -944 -272 0
v -928 -288 0
v -944 -288 0
v -944 -272 0
v -928 -272 0
v -912 -288 0
v -928 -288 0
v -928 -272 0
v -912 -272 0
v -896 -288 0
v -912 -288 0
v -912 -272 0
v -896 -272 0
v -880 -288 0
v -896 -288 0
v -896 -272 0
v -880 -272 0
v -1056 -304 0
v -1072 -304 0
v -1072 -288 0
v -1056 -288 0
v -1040 -304 0
v -1056 -304 0
v -1056 -288 0
v -1040 -288 0
v -1024 -304 0
v -1040 -304 0
v -1040 -288 0
v -1024 -288 0
v -1008 -304 0
v -1024 -304 0
v -1024 -288 0
v -1008 -288 0
v -992 -304 0
v -1008 -304 0
v -1008 -288 0
v -992 -288 0
v -976 -304 0
v -992 -304 0
v -992 -288 0
v -976 -288 0
v -960 -304 0
v -976 -304 0
v -976 -288 0
v -960 -288 0
v -944 -304 0
v -960 -304 0
v -960 -288 0
v -944 -288 0
v -928 -304 0
v -944 -304 0
v -944 -288 0
v -928 -288 0
v -912 -304 0
v -928 -304 0
v -928 -288 0
v -912 -288 0
v -896 -304 0
v -912 -304 0
v -912 -288 0
v -896 -288 0
v -880 -304 0
v -896 -304 0
v -896 -288 0
v -880 -288 0
v -864 -304 0
v -880 -304 0
v -880 -288 0
v -864 -288 0
v -1056 -320 0
v -1072 -320 0
v -1072 -304 0
v -1056 -304 0
v -1040 -320 0
v -1056 -320 0
v -1056 -304 0
v -1040 -304 0
v -1024 -320 0
v -1040 -320 0
v -1040 -304 0
v -1024 -304 0
v -1008 -320 0
v -1024 -320 0
v -1024 -304 0
v -1008 -304 0
v -992 -320 0
v -1008 -320 0
v -1008 -304 0
v -992 -304 0
v -976 -320 0
v -992 -320 0
v -992 -304 0
v -976 -304 0
v -960 -320 0
v -976 -320 0
v -976 -304 0
v -960 -304 0
v -944 -320 0
v -960 -320 0
v -960 -304 0
v -944 -304 0
v -928 -320 0
v -944 -320 0
v -944 -304 0
v -928 -304 0
v -912 -320 0
v -928 -320 0
v -928 -304 0
v -912 -304 0
v -896 -320 0
v -912 -320 0
v -912 -304 0
v -896 -304 0
v -880 -320 0
v -896 -320 0
v -896 -304 0
v -880 -304 0
v -864 -320 0
v -880 -320 0
v -880 -304 0
v -864 -304 0
v -848 -320 0
v -864 -320 0
v -864 -304 0
v -848 -304 0
v -1056 -336 0
v -1072 -336 0
v -1072 -320 0
v -1056 -320 0
v -1040 -336 0
v -1056 -336 0
v -1056 -320 0
v -1040 -320 0
v -1024 -336 0
v -1040 -336 0
v -1040 -320 0
v -1024 -320 0
v -1008 -336 0
v -1024 -336 0
v -1024 -320 0
v -1008 -320 0
v -992 -336 0
v -1008 -336 0
v -1008 -320 0
v -992 -320 0
v -976 -336 0
v -992 -336 0
v -992 -320 0
v -976 -320 0
v -960 -336 0
v -976 -336 0
v -976 -320 0
v -960 -320 0
v -944 -336 0
v -960 -336 0
v -960 -320 0
v -944 -320 0
v -928 -336 0
v -944 -336 0
v -944 -320 0
v -928 -320 0
v -912 -336 0
v -928 -336 0
v -928 -320 0
v -912 -320 0
v -896 -336 0
v -912 -336 0
v -912 -320 0
v -896 -320 0
v -880 -336 0
v -896 -336 0
v -896 -320 0
v -880 -320 0
v -864 -336 0
v -880 -336 0
v -880 -320 0
v -864 -320 0
v -848 -336 0
v -864 -336 0
v -864 -320 0
v -848 -320 0
v -832 -336 0
v -848 -336 0
v -848 -320 0
v -832 -320 0
v -1072 -352 0
v -1088 -352 0
v -1088 -336 0
v -1072 -336 0
v -1056 -352 0
v -1072 -352 0
v -1072 -336 0
v -1056 -336 0
v -1040 -352 0
v -1056 -352 0
v -1056 -336 0
v -1040 -336 0
v -1024 -352 0
v -1040 -352 0
v -1040 -336 0
v -1024 -336 0
v -1008 -352 0
v -1024 -352 0
v -1024 -336 0
v -1008 -336 0
v -992 -352 0
v -1008 -352 0
v -1008 -336 0
v -992 -336 0
v -976 -352 0
v -992 -352 0
v -992 -336 0
v -976 -336 0
v -960 -352 0
v -976 -352 0
v -976 -336 0
v -960 -336 0
v -944 -352 0
v -960 -352 0
v -960 -336 0
v -944 -336 0
v -928 -352 0
v -944 -352 0
v -944 -336 0
v -928 -336 0
v -912 -352 0
v -928 -352 0
v -928 -336 0
v -912 -336 0
v -896 -352 0
v -912 -352 0
v -912 -336 0
v -896 -336 0
v -880 -352 0
v -896 -352 0
v -896 -336 0
v -880 -336 0
v -864 -352 0
v -880 -352 0
v -880 -336 0
v -864 -336 0
v -848 -352 0
v -864 -352 0
v -864 -336 0
v -848 -336 0
v -832 -352 0
v -848 -352 0
v -848 -336 0
v -832 -336 0
v -1088 -368 0
v -1104 -368 0
v -1104 -352 0
v -1088 -352 0
v -1072 -368 0
v -1088 -368 0
v -1088 -352 0
v -1072 -352 0
v -1056 -368 0
v -1072 -368 0
v -1072 -352 0
v -1056 -352 0
v -1040 -368 0
v -1056 -368 0
v -1056 -352 0
v -1040 -352 0
v -1024 -368 0
v -1040 -368 0
v -1040 -352 0
v -1024 -352 0
v -1008 -368 0
v -1024 -368 0
v -1024 -352 0
v -1008 -352 0
v -992 -368 0
v -1008 -368 0
v -1008 -352 0
v -992 -352 0
v -976 -368 0
v -992 -368 0
v -992 -352 0
v -976 -352 0
v -960 -368 0
v -976 -368 0
v -976 -352 0
v -960 -352 0
v -944 -368 0
v -960 -368 0
v -960 -352 0
v -944 -352 0
v -928 -368 0
v -944 -368 0
v -944 -352 0
v -928 -352 0
v -912 -368 0
v -928 -368 0
v -928 -352 0
v -912 -352 0
v -896 -368 0
v -912 -368 0
v -912 -352 0
v -896 -352 0
v -880 -368 0
v -896 -368 0
v -896 -352 0
v -880 -352 0
v -864 -368 0
v -880 -368 0
v -880 -352 0
v -864 -352 0
v -848 -368 0
v -864 -368 0
v -864 -352 0
v -848 -352 0
v -832 -368 0
v -848 -368 0
v -848 -352 0
v -832 -352 0
v -1120 -384 0
v -1136 -384 0
v -1136 -368 0
v -1120 -368 0
v -1104 -384 0
v -1120 -384 0
v -1120 -368 0
v -1104 -368 0
v -1088 -384 0
v -1104 -384 0
v -1104 -368 0
v -1088 -368 0
v -1072 -384 0
v -1088 -384 0
v -1088 -368 0
v -1072 -368 0
v -1056 -384 0
v -1072 -384 0
v -1072 -368 0
v -1056 -368 0
v -1040 -384 0
v -1056 -384 0
v -1056 -368 0
v -1040 -368 0
v -1024 -384 0
v -1040 -384 0
v -1040 -368 0
v -1024 -368 0
v -1008 -384 0
v -1024 -384 0
v -1024 -368 0
v -1008 -368 0
v -992 -384 0
v -1008 -384 0
v -1008 -368 0
v -992 -368 0
v -976 -384 0
v -992 -384 0
v -992 -368 0
v -976 -368 0
v -960 -384 0
v -976 -384 0
v -976 -368 0
v -960 -368 0
v -944 -384 0
v -960 -384 0
v -960 -368 0
v -944 -368 0
v -928 -384 0
v -944 -384 0
v -944 -368 0
v -928 -368 0
v -912 -384 0
v -928 -384 0
v -928 -368 0
v -912 -368 0
v -896 -384 0
v -912 -384 0
v -912 -368 0
v -896 -368 0
v -880 -384 0
v -896 -384 0
v -896 -368 0
v -880 -368 0
v -864 -384 0
v -880 -384 0
v -880 -368 0
v -864 -368 0
v -848 -384 0
v -864 -384 0
v -864 -368 0
v -848 -368 0
v -832 -384 0
v -848 -384 0
v -848 -368 0
v -832 -368 0
v -1120 -400 0
v -1136 -400 0
v -1136 -384 0
v -1120 -384 0
v -1104 -400 0
v -1120 -400 0
v -1120 -384 0
v -1104 -384 0
v -1088 -400 0
v -1104 -400 0
v -1104 -384 0
v -1088 -384 0
v -1072 -400 0
v -1088 -400 0
v -1088 -384 0
v -1072 -384 0
v -1056 -400 0
v -1072 -400 0
v -1072 -384 0
v -1056 -384 0
v -1040 -400 0
v -1056 -400 0
v -1056 -384 0
v -1040 -384 0
v -1024 -400 0
v -1040 -400 0
v -1040 -384 0
v -1024 -384 0
v -1008 -400 0
v -1024 -400 0
v -1024 -384 0
v -1008 -384 0
v -992 -400 0
v -1008 -400 0
v -1008 -384 0
v -992 -384 0
v -976 -400 0
v -992 -400 0
v -992 -384 0
v -976 -384 0
v -960 -400 0
v -976 -400 0
v -976 -384 0
v -960 -384 0
v -944 -400 0
v -960 -400 0
v -960 -384 0
v -944 -384 0
v -928 -400 0
v -944 -400 0
v -944 -384 0
v -928 -384 0
v -912 -400 0
v -928 -400 0
v -928 -384 0
v -912 -384 0
v -896 -400 0
v -912 -400 0
v -912 -384 0
v -896 -384 0
v -880 -400 0
v -896 -400 0
v -896 -384 0
v -880 -384 0
v -864 -400 0
v -880 -400 0
v -880 -384 0
v -864 -384 0
v -848 -400 0
v -864 -400 0
v -864 -384 0
v -848 -384 0
v -832 -400 0
v -848 -400 0
v -848 -384 0
v -832 -384 0
v -1120 -416 0
v -1136 -416 0
v -1136 -400 0
v -1120 -400 0
v -1104 -416 0
v -1120 -416 0
v -1120 -400 0
v -1104 -400 0
v -1088 -416 0
v -1104 -416 0
v -1104 -400 0
v -1088 -400 0
v -1072 -416 0
v -1088 -416 0
v -1088 -400 0
v -1072 -400 0
v -1056 -416 0
v -1072 -416 0
v -1072 -400 0
v -1056 -400 0
v -1040 -416 0
v -1056 -416 0
v -1056 -400 0
v -1040 -400 0
v -1024 -416 0
v -1040 -416 0
v -1040 -400 0
v -1024 -400 0
v -1008 -416 0
v -1024 -416 0
v -1024 -400 0
v -1008 -400 0
v -992 -416 0
v -1008 -416 0
v -1008 -400 0
v -992 -400 0
v -976 -416 0
v -992 -416 0
v -992 -400 0
v -976 -400 0
v -960 -416 0
v -976 -416 0
v -976 -400 0
v -960 -400 0
v -944 -416 0
v -960 -416 0
v -960 -400 0
v -944 -400 0
v -928 -416 0
v -944 -416 0
v -944 -400 0
v -928 -400 0
v -912 -416 0
v -928 -416 0
v -928 -400 0
v -912 -400 0
v -896 -416 0
v -912 -416 0
v -912 -400 0
v -896 -400 0
v -880 -416 0
v -896 -416 0
v -896 -400 0
v -880 -400 0
v -864 -416 0
v -880 -416 0
v -880 -400 0
v -864 -400 0
v -848 -416 0
v -864 -416 0
v -864 -400 0
v -848 -400 0
v -832 -416 0
v -848 -416 0
v -848 -400 0
v -832 -400 0
v -1088 -432 0
v -1104 -432 0
v -1104 -416 0
v -1088 -416 0
v -1072 -432 0
v -1088 -432 0
v -1088 -416 0
v -1072 -416 0
v -1056 -432 0
v -1072 -432 0
v -1072 -416 0
v -1056 -416 0
v -1040 -432 0
v -1056 -432 0
v -1056 -416 0
v -1040 -416 0
v -1024 -432 0
v -1040 -432 0
v -1040 -416 0
v -1024 -416 0
v -1008 -432 0
v -1024 -432 0
v -1024 -416 0
v -1008 -416 0
v -992 -432 0
v -1008 -432 0
v -1008 -416 0
v -992 -416 0
v -976 -432 0
v -992 -432 0
v -992 -416 0
v -976 -416 0
v -960 -432 0
v -976 -432 0
v -976 -416 0
v -960 -416 0
v -944 -432 0
v -960 -432 0
v -960 -416 0
v -944 -416 0
v -928 -432 0
v -944 -432 0
v -944 -416 0
v -928 -416 0
v -912 -432 0
v -928 -432 0
v -928 -416 0
v -912 -416 0
v -896 -432 0
v -912 -432 0
v -912 -416 0
v -896 -416 0
v -880 -432 0
v -896 -432 0
v -896 -416 0
v -880 -416 0
v -1072 -448 0
v -1088 -448 0
v -1088 -432 0
v -1072 -432 0
v -1056 -448 0
v -1072 -448 0
v -1072 -432 0
v -1056 -432 0
v -1040 -448 0
v -1056 -448 0
v -1056 -432 0
v -1040 -432 0
v -1024 -448 0
v -1040 -448 0
v -1040 -432 0
v -1024 -432 0
v -1008 -448 0
v -1024 -448 0
v -1024 -432 0
v -1008 -432 0
v -992 -448 0
v -1008 -448 0
v -1008 -432 0
v -992 -432 0
v -976 -448 0
v -992 -448 0
v -992 -432 0
v -976 -432 0
v -960 -448 0
v -976 -448 0
v -976 -432 0
v -960 -432 0
v -944 -448 0
v -960 -448 0
v -960 -432 0
v -944 -432 0
v -928 -448 0
v -944 -448 0
v -944 -432 0
v -928 -432 0
v -912 -448 0
v -928 -448 0
v -928 -432 0
v -912 -432 0
v -896 -448 0
v -912 -448 0
v -912 -432 0
v -896 -432 0
v -880 -448 0
v -896 -448 0
v -896 -432 0
v -880 -432 0
v -1072 -464 0
v -1088 -464 0
v -1088 -448 0
v -1072 -448 0
v -1056 -464 0
v -1072 -464 0
v -1072 -448 0
v -1056 -448 0
v -1040 -464 0
v -1056 -464 0
v -1056 -448 0
v -1040 -448 0
v -1024 -464 0
v -1040 -464 0
v -1040 -448 0
v -1024 -448 0
v -1008 -464 0
v -1024 -464 0
v -1024 -448 0
v -1008 -448 0
v -992 -464 0
v -1008 -464 0
v -1008 -448 0
v -992 -448 0
v -976 -464 0
v -992 -464 0
v -992 -448 0
v -976 -448 0
v -960 -464 0
v -976 -464 0
v -976 -448 0
v -960 -448 0
v -944 -464 0
v -960 -464 0
v -960 -448 0
v -944 -448 0
v -928 -464 0
v -944 -464 0
v -944 -448 0
v -928 -448 0
v -912 -464 0
v -928 -464 0
v -928 -448 0
v -912 -448 0
v -896 -464 0
v -912 -464 0
v -912 -448 0
v -896 -448 0
v -880 -464 0
v -896 -464 0
v -896 -448 0
v -880 -448 0
v -1072 -480 0
v -1088 -480 0
v -1088 -464 0
v -1072 -464 0
v -1056 -480 0
v -1072 -480 0
v -1072 -464 0
v -1056 -464 0
v -1040 -480 0
v -1056 -480 0
v -1056 -464 0
v -1040 -464 0
v -1024 -480 0
v -1040 -480 0
v -1040 -464 0
v -1024 -464 0
v -1008 -480 0
v -1024 -480 0
v -1024 -464 0
v -1008 -464 0
v -992 -480 0
v -1008 -480 0
v -1008 -464 0
v -992 -464 0
v -976 -480 0
v -992 -480 0
v -992 -464 0
v -976 -464 0
v -960 -480 0
v -976 -480 0
v -976 -464 0
v -960 -464 0
v -944 -480 0
v -960 -480 0
v -960 -464 0
v -944 -464 0
v -928 -480 0
v -944 -480 0
v -944 -464 0
v -928 -464 0
v -912 -480 0
v -928 -480 0
v -928 -464 0
v -912 -464 0
v -896 -480 0
v -912 -480 0
v -912 -464 0
v -896 -464 0
v -880 -480 0
v -896 -480 0
v -896 -464 0
v -880 -464 0
v -1072 -496 0
v -1088 -496 0
v -1088 -480 0
v -1072 -480 0
v -1056 -496 0
v -1072 -496 0
v -1072 -480 0
v -1056 -480 0
v -1040 -496 0
v -1056 -496 0
v -1056 -480 0
v -1040 -480 0
v -1024 -496 0
v -1040 -496 0
v -1040 -480 0
v -1024 -480 0
v -1008 -496 0
v -1024 -496 0
v -1024 -480 0
v -1008 -480 0
v -992 -496 0
v -1008 -496 0
v -1008 -480 0
v -992 -480 0
v -976 -496 0
v -992 -496 0
v -992 -480 0
v -976 -480 0
v -960 -496 0
v -976 -496 0
v -976 -480 0
v -960 -480 0
v -944 -496 0
v -960 -496 0
v -960 -480 0
v -944 -480 0
v -928 -496 0
v -944 -496 0
v -944 -480 0
v -928 -480 0
v -912 -496 0
v -928 -496 0
v -928 -480 0
v -912 -480 0
v -896 -496 0
v -912 -496 0
v -912 -480 0
v -896 -480 0
v -1072 -512 0
v -1088 -512 0
v -1088 -496 0
v -1072 -496 0
v -1056 -512 0
v -1072 -512 0
v -1072 -496 0
v -1056 -496 0
v -1040 -512 0
v -1056 -512 0
v -1056 -496 0
v -1040 -496 0
v -1024 -512 0
v -1040 -512 0
v -1040 -496 0
v -1024 -496 0
v -1008 -512 0
v -1024 -512 0
v -1024 -496 0
v -1008 -496 0
v -976 -512 0
v -992 -512 0
v -992 -496 0
v -976 -496 0
v -960 -512 0
v -976 -512 0
v -976 -496 0
v -960 -496 0
v -944 -512 0
v -960 -512 0
v -960 -496 0
v -944 -496 0
v -928 -512 0
v -944 -512 0
v -944 -496 0
v -928 -496 0

# Texture cooridinates (Count = 52)
vt 0.1580579 0.6787072
vt 0.1745868 0.6787072
vt 0.1745868 0.7091255
vt 0.1580579 0.7091255
vt 0.1404959 0.6787072
vt 0.1570248 0.6787072
vt 0.1570248 0.7091255
vt 0.1404959 0.7091255
vt 0.1229339 0.6787072
vt 0.1394628 0.6787072
vt 0.1394628 0.7091255
vt 0.1229339 0.7091255
vt 0.08780992 0.6463878
vt 0.1043388 0.6463878
vt 0.1043388 0.6768061
vt 0.08780992 0.6768061
vt 0.1404959 0.6463878
vt 0.1570248 0.6463878
vt 0.1570248 0.6768061
vt 0.1404959 0.6768061
vt 0.1229339 0.6463878
vt 0.1394628 0.6463878
vt 0.1394628 0.6768061
vt 0.1229339 0.6768061
vt 0.1580579 0.6463878
vt 0.1745868 0.6463878
vt 0.1745868 0.6768061
vt 0.1580579 0.6768061
vt 0.1053719 0.6463878
vt 0.1219008 0.6463878
vt 0.1219008 0.6768061
vt 0.1053719 0.6768061
vt 0.1580579 0.6140684
vt 0.1745868 0.6140684
vt 0.1745868 0.6444867
vt 0.1580579 0.6444867
vt 0.1404959 0.6140684
vt 0.1570248 0.6140684
vt 0.1570248 0.6444867
vt 0.1404959 0.6444867
vt 0.08780992 0.6787072
vt 0.1043388 0.6787072
vt 0.1043388 0.7091255
vt 0.08780992 0.7091255
vt 0.1053719 0.6787072
vt 0.1219008 0.6787072
vt 0.1219008 0.7091255
vt 0.1053719 0.7091255
vt 0.1229339 0.6140684
vt 0.1394628 0.6140684
vt 0.1394628 0.6444867
vt 0.1229339 0.6444867

# Normal
vn 0 0 -1

# Mesh description
g Test-World_mesh_0002

# Faces
f 1/1/1 2/2/1 3/3/1 4/4/1
f 5/5/1 6/6/1 7/7/1 8/8/1
f 9/5/1 10/6/1 11/7/1 12/8/1
f 13/5/1 14/6/1 15/7/1 16/8/1
f 17/5/1 18/6/1 19/7/1 20/8/1
f 21/5/1 22/6/1 23/7/1 24/8/1
f 25/5/1 26/6/1 27/7/1 28/8/1
f 29/5/1 30/6/1 31/7/1 32/8/1
f 33/5/1 34/6/1 35/7/1 36/8/1
f 37/9/1 38/10/1 39/11/1 40/12/1
f 41/1/1 42/2/1 43/3/1 44/4/1
f 45/13/1 46/14/1 47/15/1 48/16/1
f 49/17/1 50/18/1 51/19/1 52/20/1
f 53/17/1 54/18/1 55/19/1 56/20/1
f 57/17/1 58/18/1 59/19/1 60/20/1
f 61/17/1 62/18/1 63/19/1 64/20/1
f 65/17/1 66/18/1 67/19/1 68/20/1
f 69/17/1 70/18/1 71/19/1 72/20/1
f 73/17/1 74/18/1 75/19/1 76/20/1
f 77/17/1 78/18/1 79/19/1 80/20/1
f 81/21/1 82/22/1 83/23/1 84/24/1
f 85/1/1 86/2/1 87/3/1 88/4/1
f 89/13/1 90/14/1 91/15/1 92/16/1
f 93/17/1 94/18/1 95/19/1 96/20/1
f 97/17/1 98/18/1 99/19/1 100/20/1
f 101/17/1 102/18/1 103/19/1 104/20/1
f 105/17/1 106/18/1 107/19/1 108/20/1
f 109/17/1 110/18/1 111/19/1 112/20/1
f 113/17/1 114/18/1 115/19/1 116/20/1
f 117/17/1 118/18/1 119/19/1 120/20/1
f 121/17/1 122/18/1 123/19/1 124/20/1
f 125/17/1 126/18/1 127/19/1 128/20/1
f 129/21/1 130/22/1 131/23/1 132/24/1
f 133/25/1 134/26/1 135/27/1 136/28/1
f 137/17/1 138/18/1 139/19/1 140/20/1
f 141/17/1 142/18/1 143/19/1 144/20/1
f 145/17/1 146/18/1 147/19/1 148/20/1
f 149/17/1 150/18/1 151/19/1 152/20/1
f 153/17/1 154/18/1 155/19/1 156/20/1
f 157/17/1 158/18/1 159/19/1 160/20/1
f 161/17/1 162/18/1 163/19/1 164/20/1
f 165/17/1 166/18/1 167/19/1 168/20/1
f 169/17/1 170/18/1 171/19/1 172/20/1
f 173/17/1 174/18/1 175/19/1 176/20/1
f 177/29/1 178/30/1 179/31/1 180/32/1
f 181/9/1 182/10/1 183/11/1 184/12/1
f 185/25/1 186/26/1 187/27/1 188/28/1
f 189/17/1 190/18/1 191/19/1 192/20/1
f 193/17/1 194/18/1 195/19/1 196/20/1
f 197/17/1 198/18/1 199/19/1 200/20/1
f 201/17/1 202/18/1 203/19/1 204/20/1
f 205/17/1 206/18/1 207/19/1 208/20/1
f 209/17/1 210/18/1 211/19/1 212/20/1
f 213/17/1 214/18/1 215/19/1 216/20/1
f 217/17/1 218/18/1 219/19/1 220/20/1
f 221/17/1 222/18/1 223/19/1 224/20/1
f 225/17/1 226/18/1 227/19/1 228/20/1
f 229/17/1 230/18/1 231/19/1 232/20/1
f 233/29/1 234/30/1 235/31/1 236/32/1
f 237/9/1 238/10/1 239/11/1 240/12/1
f 241/25/1 242/26/1 243/27/1 244/28/1
f 245/17/1 246/18/1 247/19/1 248/20/1
f 249/17/1 250/18/1 251/19/1 252/20/1
f 253/17/1 254/18/1 255/19/1 256/20/1
f 257/17/1 258/18/1 259/19/1 260/20/1
f 261/17/1 262/18/1 263/19/1 264/20/1
f 265/17/1 266/18/1 267/19/1 268/20/1
f 269/17/1 270/18/1 271/19/1 272/20/1
f 273/17/1 274/18/1 275/19/1 276/20/1
f 277/17/1 278/18/1 279/19/1 280/20/1
f 281/17/1 282/18/1 283/19/1 284/20/1
f 285/17/1 286/18/1 287/19/1 288/20/1
f 289/17/1 290/18/1 291/19/1 292/20/1
f 293/29/1 294/30/1 295/31/1 296/32/1
f 297/9/1 298/10/1 299/11/1 300/12/1
f 301/1/1 302/2/1 303/3/1 304/4/1
f 305/13/1 306/14/1 307/15/1 308/16/1
f 309/17/1 310/18/1 311/19/1 312/20/1
f 313/17/1 314/18/1 315/19/1 316/20/1
f 317/17/1 318/18/1 319/19/1 320/20/1
f 321/17/1 322/18/1 323/19/1 324/20/1
f 325/17/1 326/18/1 327/19/1 328/20/1
f 329/17/1 330/18/1 331/19/1 332/20/1
f 333/17/1 334/18/1 335/19/1 336/20/1
f 337/17/1 338/18/1 339/19/1 340/20/1
f 341/17/1 342/18/1 343/19/1 344/20/1
f 345/17/1 346/18/1 347/19/1 348/20/1
f 349/17/1 350/18/1 351/19/1 352/20/1
f 353/17/1 354/18/1 355/19/1 356/20/1
f 357/17/1 358/18/1 359/19/1 360/20/1
f 361/21/1 362/22/1 363/23/1 364/24/1
f 365/1/1 366/2/1 367/3/1 368/4/1
f 369/13/1 370/14/1 371/15/1 372/16/1
f 373/17/1 374/18/1 375/19/1 376/20/1
f 377/17/1 378/18/1 379/19/1 380/20/1
f 381/17/1 382/18/1 383/19/1 384/20/1
f 385/17/1 386/18/1 387/19/1 388/20/1
f 389/17/1 390/18/1 391/19/1 392/20/1
f 393/17/1 394/18/1 395/19/1 396/20/1
f 397/17/1 398/18/1 399/19/1 400/20/1
f 401/17/1 402/18/1 403/19/1 404/20/1
f 405/17/1 406/18/1 407/19/1 408/20/1
f 409/17/1 410/18/1 411/19/1 412/20/1
f 413/17/1 414/18/1 415/19/1 416/20/1
f 417/17/1 418/18/1 419/19/1 420/20/1
f 421/17/1 422/18/1 423/19/1 424/20/1
f 425/17/1 426/18/1 427/19/1 428/20/1
f 429/21/1 430/22/1 431/23/1 432/24/1
f 433/1/1 434/2/1 435/3/1 436/4/1
f 437/5/1 438/6/1 439/7/1 440/8/1
f 441/13/1 442/14/1 443/15/1 444/16/1
f 445/17/1 446/18/1 447/19/1 448/20/1
f 449/17/1 450/18/1 451/19/1 452/20/1
f 453/17/1 454/18/1 455/19/1 456/20/1
f 457/17/1 458/18/1 459/19/1 460/20/1
f 461/17/1 462/18/1 463/19/1 464/20/1
f 465/17/1 466/18/1 467/19/1 468/20/1
f 469/17/1 470/18/1 471/19/1 472/20/1
f 473/17/1 474/18/1 475/19/1 476/20/1
f 477/17/1 478/18/1 479/19/1 480/20/1
f 481/17/1 482/18/1 483/19/1 484/20/1
f 485/17/1 486/18/1 487/19/1 488/20/1
f 489/17/1 490/18/1 491/19/1 492/20/1
f 493/17/1 494/18/1 495/19/1 496/20/1
f 497/17/1 498/18/1 499/19/1 500/20/1
f 501/17/1 502/18/1 503/19/1 504/20/1
f 505/21/1 506/22/1 507/23/1 508/24/1
f 509/25/1 510/26/1 511/27/1 512/28/1
f 513/17/1 514/18/1 515/19/1 516/20/1
f 517/17/1 518/18/1 519/19/1 520/20/1
f 521/17/1 522/18/1 523/19/1 524/20/1
f 525/17/1 526/18/1 527/19/1 528/20/1
f 529/17/1 530/18/1 531/19/1 532/20/1
f 533/17/1 534/18/1 535/19/1 536/20/1
f 537/17/1 538/18/1 539/19/1 540/20/1
f 541/17/1 542/18/1 543/19/1 544/20/1
f 545/17/1 546/18/1 547/19/1 548/20/1
f 549/17/1 550/18/1 551/19/1 552/20/1
f 553/17/1 554/18/1 555/19/1 556/20/1
f 557/17/1 558/18/1 559/19/1 560/20/1
f 561/17/1 562/18/1 563/19/1 564/20/1
f 565/17/1 566/18/1 567/19/1 568/20/1
f 569/17/1 570/18/1 571/19/1 572/20/1
f 573/17/1 574/18/1 575/19/1 576/20/1
f 577/17/1 578/18/1 579/19/1 580/20/1
f 581/21/1 582/22/1 583/23/1 584/24/1
f 585/33/1 586/34/1 587/35/1 588/36/1
f 589/37/1 590/38/1 591/39/1 592/40/1
f 593/41/1 594/42/1 595/43/1 596/44/1
f 597/17/1 598/18/1 599/19/1 600/20/1
f 601/17/1 602/18/1 603/19/1 604/20/1
f 605/45/1 606/46/1 607/47/1 608/48/1
f 609/41/1 610/42/1 611/43/1 612/44/1
f 613/17/1 614/18/1 615/19/1 616/20/1
f 617/17/1 618/18/1 619/19/1 620/20/1
f 621/17/1 622/18/1 623/19/1 624/20/1
f 625/17/1 626/18/1 627/19/1 628/20/1
f 629/17/1 630/18/1 631/19/1 632/20/1
f 633/17/1 634/18/1 635/19/1 636/20/1
f 637/17/1 638/18/1 639/19/1 640/20/1
f 641/17/1 642/18/1 643/19/1 644/20/1
f 645/45/1 646/46/1 647/47/1 648/48/1
f 649/37/1 650/38/1 651/39/1 652/40/1
f 653/37/1 654/38/1 655/39/1 656/40/1
f 657/49/1 658/50/1 659/51/1 660/52/1
f 661/33/1 662/34/1 663/35/1 664/36/1
f 665/41/1 666/42/1 667/43/1 668/44/1
f 669/17/1 670/18/1 671/19/1 672/20/1
f 673/29/1 674/30/1 675/31/1 676/32/1
f 677/13/1 678/14/1 679/15/1 680/16/1
f 681/17/1 682/18/1 683/19/1 684/20/1
f 685/17/1 686/18/1 687/19/1 688/20/1
f 689/17/1 690/18/1 691/19/1 692/20/1
f 693/17/1 694/18/1 695/19/1 696/20/1
f 697/17/1 698/18/1 699/19/1 700/20/1
f 701/17/1 702/18/1 703/19/1 704/20/1
f 705/17/1 706/18/1 707/19/1 708/20/1
f 709/17/1 710/18/1 711/19/1 712/20/1
f 713/21/1 714/22/1 715/23/1 716/24/1
f 717/25/1 718/26/1 719/27/1 720/28/1
f 721/17/1 722/18/1 723/19/1 724/20/1
f 725/17/1 726/18/1 727/19/1 728/20/1
f 729/45/1 730/46/1 731/47/1 732/48/1
f 733/41/1 734/42/1 735/43/1 736/44/1
f 737/17/1 738/18/1 739/19/1 740/20/1
f 741/17/1 742/18/1 743/19/1 744/20/1
f 745/17/1 746/18/1 747/19/1 748/20/1
f 749/17/1 750/18/1 751/19/1 752/20/1
f 753/17/1 754/18/1 755/19/1 756/20/1
f 757/17/1 758/18/1 759/19/1 760/20/1
f 761/17/1 762/18/1 763/19/1 764/20/1
f 765/21/1 766/22/1 767/23/1 768/24/1
f 769/25/1 770/26/1 771/27/1 772/28/1
f 773/17/1 774/18/1 775/19/1 776/20/1
f 777/17/1 778/18/1 779/19/1 780/20/1
f 781/29/1 782/30/1 783/31/1 784/32/1
f 785/13/1 786/14/1 787/15/1 788/16/1
f 789/17/1 790/18/1 791/19/1 792/20/1
f 793/17/1 794/18/1 795/19/1 796/20/1
f 797/17/1 798/18/1 799/19/1 800/20/1
f 801/17/1 802/18/1 803/19/1 804/20/1
f 805/17/1 806/18/1 807/19/1 808/20/1
f 809/17/1 810/18/1 811/19/1 812/20/1
f 813/17/1 814/18/1 815/19/1 816/20/1
f 817/21/1 818/22/1 819/23/1 820/24/1
f 821/25/1 822/26/1 823/27/1 824/28/1
f 825/17/1 826/18/1 827/19/1 828/20/1
f 829/17/1 830/18/1 831/19/1 832/20/1
f 833/17/1 834/18/1 835/19/1 836/20/1
f 837/17/1 838/18/1 839/19/1 840/20/1
f 841/17/1 842/18/1 843/19/1 844/20/1
f 845/17/1 846/18/1 847/19/1 848/20/1
f 849/17/1 850/18/1 851/19/1 852/20/1
f 853/17/1 854/18/1 855/19/1 856/20/1
f 857/17/1 858/18/1 859/19/1 860/20/1
f 861/17/1 862/18/1 863/19/1 864/20/1
f 865/45/1 866/46/1 867/47/1 868/48/1
f 869/49/1 870/50/1 871/51/1 872/52/1
f 873/25/1 874/26/1 875/27/1 876/28/1
f 877/17/1 878/18/1 879/19/1 880/20/1
f 881/17/1 882/18/1 883/19/1 884/20/1
f 885/17/1 886/18/1 887/19/1 888/20/1
f 889/45/1 890/46/1 891/47/1 892/48/1
f 893/37/1 894/38/1 895/39/1 896/40/1
f 897/41/1 898/42/1 899/43/1 900/44/1
f 901/17/1 902/18/1 903/19/1 904/20/1
f 905/45/1 906/46/1 907/47/1 908/48/1
f 909/37/1 910/38/1 911/39/1 912/40/1
f 913/37/1 914/38/1 915/39/1 916/40/1
f 917/49/1 918/50/1 919/51/1 920/52/1
f 921/33/1 922/34/1 923/35/1 924/36/1
f 925/37/1 926/38/1 927/39/1 928/40/1
f 929/37/1 930/38/1 931/39/1 932/40/1
f 933/37/1 934/38/1 935/39/1 936/40/1
f 937/49/1 938/50/1 939/51/1 940/52/1
f 941/33/1 942/34/1 943/35/1 944/36/1
f 945/37/1 946/38/1 947/39/1 948/40/1
f 949/37/1 950/38/1 951/39/1 952/40/1
f 953/49/1 954/50/1 955/51/1 956/52/1

