# Tiled2Unity generated file. Do not modify by hand.
# Wavefront file for 'Test-World_mesh_0006.obj'

# Vertices (Count = 796)
v -624 -16 0
v -640 -16 0
v -640 0 0
v -624 0 0
v -1088 -32 0
v -1104 -32 0
v -1104 -16 0
v -1088 -16 0
v -1008 -32 0
v -1024 -32 0
v -1024 -16 0
v -1008 -16 0
v -880 -32 0
v -896 -32 0
v -896 -16 0
v -880 -16 0
v -720 -32 0
v -736 -32 0
v -736 -16 0
v -720 -16 0
v -624 -32 0
v -640 -32 0
v -640 -16 0
v -624 -16 0
v -896 -48 0
v -912 -48 0
v -912 -32 0
v -896 -32 0
v -784 -48 0
v -800 -48 0
v -800 -32 0
v -784 -32 0
v -672 -48 0
v -688 -48 0
v -688 -32 0
v -672 -32 0
v -656 -48 0
v -672 -48 0
v -672 -32 0
v -656 -32 0
v -624 -48 0
v -640 -48 0
v -640 -32 0
v -624 -32 0
v -64 -48 0
v -80 -48 0
v -80 -32 0
v -64 -32 0
v -1152 -64 0
v -1168 -64 0
v -1168 -48 0
v -1152 -48 0
v -624 -64 0
v -640 -64 0
v -640 -48 0
v -624 -48 0
v -608 -64 0
v -624 -64 0
v -624 -48 0
v -608 -48 0
v -432 -64 0
v -448 -64 0
v -448 -48 0
v -432 -48 0
v -176 -64 0
v -192 -64 0
v -192 -48 0
v -176 -48 0
v -1056 -80 0
v -1072 -80 0
v -1072 -64 0
v -1056 -64 0
v -976 -80 0
v -992 -80 0
v -992 -64 0
v -976 -64 0
v -960 -80 0
v -976 -80 0
v -976 -64 0
v -960 -64 0
v -608 -80 0
v -624 -80 0
v -624 -64 0
v -608 -64 0
v -352 -80 0
v -368 -80 0
v -368 -64 0
v -352 -64 0
v -256 -80 0
v -272 -80 0
v -272 -64 0
v -256 -64 0
v -1104 -96 0
v -1120 -96 0
v -1120 -80 0
v -1104 -80 0
v -832 -96 0
v -848 -96 0
v -848 -80 0
v -832 -80 0
v -608 -96 0
v -624 -96 0
v -624 -80 0
v -608 -80 0
v -1152 -112 0
v -1168 -112 0
v -1168 -96 0
v -1152 -96 0
v -688 -112 0
v -704 -112 0
v -704 -96 0
v -688 -96 0
v -672 -112 0
v -688 -112 0
v -688 -96 0
v -672 -96 0
v -608 -112 0
v -624 -112 0
v -624 -96 0
v -608 -96 0
v -352 -112 0
v -368 -112 0
v -368 -96 0
v -352 -96 0
v -144 -112 0
v -160 -112 0
v -160 -96 0
v -144 -96 0
v -48 -112 0
v -64 -112 0
v -64 -96 0
v -48 -96 0
v -912 -128 0
v -928 -128 0
v -928 -112 0
v -912 -112 0
v -800 -128 0
v -816 -128 0
v -816 -112 0
v -800 -112 0
v -608 -128 0
v -624 -128 0
v -624 -112 0
v -608 -112 0
v -240 -128 0
v -256 -128 0
v -256 -112 0
v -240 -112 0
v -1136 -144 0
v -1152 -144 0
v -1152 -128 0
v -1136 -128 0
v -976 -144 0
v -992 -144 0
v -992 -128 0
v -976 -128 0
v -608 -144 0
v -624 -144 0
v -624 -128 0
v -608 -128 0
v -1104 -160 0
v -1120 -160 0
v -1120 -144 0
v -1104 -144 0
v -1040 -160 0
v -1056 -160 0
v -1056 -144 0
v -1040 -144 0
v -864 -160 0
v -880 -160 0
v -880 -144 0
v -864 -144 0
v -704 -160 0
v -720 -160 0
v -720 -144 0
v -704 -144 0
v -608 -160 0
v -624 -160 0
v -624 -144 0
v -608 -144 0
v -320 -160 0
v -336 -160 0
v -336 -144 0
v -320 -144 0
v -272 -160 0
v -288 -160 0
v -288 -144 0
v -272 -144 0
v -800 -176 0
v -816 -176 0
v -816 -160 0
v -800 -160 0
v -640 -176 0
v -656 -176 0
v -656 -160 0
v -640 -160 0
v -608 -176 0
v -624 -176 0
v -624 -160 0
v -608 -160 0
v -448 -176 0
v -464 -176 0
v -464 -160 0
v -448 -160 0
v -384 -176 0
v -400 -176 0
v -400 -160 0
v -384 -160 0
v -1040 -192 0
v -1056 -192 0
v -1056 -176 0
v -1040 -176 0
v -608 -192 0
v -624 -192 0
v -624 -176 0
v -608 -176 0
v -592 -192 0
v -608 -192 0
v -608 -176 0
v -592 -176 0
v -992 -208 0
v -1008 -208 0
v -1008 -192 0
v -992 -192 0
v -944 -208 0
v -960 -208 0
v -960 -192 0
v -944 -192 0
v -864 -208 0
v -880 -208 0
v -880 -192 0
v -864 -192 0
v -784 -208 0
v -800 -208 0
v -800 -192 0
v -784 -192 0
v -752 -208 0
v -768 -208 0
v -768 -192 0
v -752 -192 0
v -592 -208 0
v -608 -208 0
v -608 -192 0
v -592 -192 0
v -1136 -224 0
v -1152 -224 0
v -1152 -208 0
v -1136 -208 0
v -880 -224 0
v -896 -224 0
v -896 -208 0
v -880 -208 0
v -592 -224 0
v -608 -224 0
v -608 -208 0
v -592 -208 0
v -1168 -240 0
v -1184 -240 0
v -1184 -224 0
v -1168 -224 0
v -752 -240 0
v -768 -240 0
v -768 -224 0
v -752 -224 0
v -688 -240 0
v -704 -240 0
v -704 -224 0
v -688 -224 0
v -592 -240 0
v -608 -240 0
v -608 -224 0
v -592 -224 0
v -1072 -256 0
v -1088 -256 0
v -1088 -240 0
v -1072 -240 0
v -816 -256 0
v -832 -256 0
v -832 -240 0
v -816 -240 0
v -592 -256 0
v -608 -256 0
v -608 -240 0
v -592 -240 0
v -1152 -272 0
v -1168 -272 0
v -1168 -256 0
v -1152 -256 0
v -768 -272 0
v -784 -272 0
v -784 -256 0
v -768 -256 0
v -592 -272 0
v -608 -272 0
v -608 -256 0
v -592 -256 0
v -592 -288 0
v -608 -288 0
v -608 -272 0
v -592 -272 0
v -1104 -304 0
v -1120 -304 0
v -1120 -288 0
v -1104 -288 0
v -736 -304 0
v -752 -304 0
v -752 -288 0
v -736 -288 0
v -720 -304 0
v -736 -304 0
v -736 -288 0
v -720 -288 0
v -624 -304 0
v -640 -304 0
v -640 -288 0
v -624 -288 0
v -592 -304 0
v -608 -304 0
v -608 -288 0
v -592 -288 0
v -784 -320 0
v -800 -320 0
v -800 -304 0
v -784 -304 0
v -688 -320 0
v -704 -320 0
v -704 -304 0
v -688 -304 0
v -592 -320 0
v -608 -320 0
v -608 -304 0
v -592 -304 0
v -576 -320 0
v -592 -320 0
v -592 -304 0
v -576 -304 0
v -576 -336 0
v -592 -336 0
v -592 -320 0
v -576 -320 0
v -1136 -352 0
v -1152 -352 0
v -1152 -336 0
v -1136 -336 0
v -1088 -352 0
v -1104 -352 0
v -1104 -336 0
v -1088 -336 0
v -1072 -352 0
v -1088 -352 0
v -1088 -336 0
v -1072 -336 0
v -1056 -352 0
v -1072 -352 0
v -1072 -336 0
v -1056 -336 0
v -1040 -352 0
v -1056 -352 0
v -1056 -336 0
v -1040 -336 0
v -1024 -352 0
v -1040 -352 0
v -1040 -336 0
v -1024 -336 0
v -720 -352 0
v -736 -352 0
v -736 -336 0
v -720 -336 0
v -576 -352 0
v -592 -352 0
v -592 -336 0
v -576 -336 0
v -1088 -368 0
v -1104 -368 0
v -1104 -352 0
v -1088 -352 0
v -1024 -368 0
v -1040 -368 0
v -1040 -352 0
v -1024 -352 0
v -768 -368 0
v -784 -368 0
v -784 -352 0
v -768 -352 0
v -672 -368 0
v -688 -368 0
v -688 -352 0
v -672 -352 0
v -576 -368 0
v -592 -368 0
v -592 -352 0
v -576 -352 0
v -1088 -384 0
v -1104 -384 0
v -1104 -368 0
v -1088 -368 0
v -1024 -384 0
v -1040 -384 0
v -1040 -368 0
v -1024 -368 0
v -752 -384 0
v -768 -384 0
v -768 -368 0
v -752 -368 0
v -656 -384 0
v -672 -384 0
v -672 -368 0
v -656 -368 0
v -592 -384 0
v -608 -384 0
v -608 -368 0
v -592 -368 0
v -576 -384 0
v -592 -384 0
v -592 -368 0
v -576 -368 0
v -1088 -400 0
v -1104 -400 0
v -1104 -384 0
v -1088 -384 0
v -1072 -400 0
v -1088 -400 0
v -1088 -384 0
v -1072 -384 0
v -1056 -400 0
v -1072 -400 0
v -1072 -384 0
v -1056 -384 0
v -1040 -400 0
v -1056 -400 0
v -1056 -384 0
v -1040 -384 0
v -1024 -400 0
v -1040 -400 0
v -1040 -384 0
v -1024 -384 0
v -768 -400 0
v -784 -400 0
v -784 -384 0
v -768 -384 0
v -672 -400 0
v -688 -400 0
v -688 -384 0
v -672 -384 0
v -592 -400 0
v -608 -400 0
v -608 -384 0
v -592 -384 0
v -784 -416 0
v -800 -416 0
v -800 -400 0
v -784 -400 0
v -688 -416 0
v -704 -416 0
v -704 -400 0
v -688 -400 0
v -656 -416 0
v -672 -416 0
v -672 -400 0
v -656 -400 0
v -592 -416 0
v -608 -416 0
v -608 -400 0
v -592 -400 0
v -704 -432 0
v -720 -432 0
v -720 -416 0
v -704 -416 0
v -672 -432 0
v -688 -432 0
v -688 -416 0
v -672 -416 0
v -592 -432 0
v -608 -432 0
v -608 -416 0
v -592 -416 0
v -784 -448 0
v -800 -448 0
v -800 -432 0
v -784 -432 0
v -688 -448 0
v -704 -448 0
v -704 -432 0
v -688 -432 0
v -592 -448 0
v -608 -448 0
v -608 -432 0
v -592 -432 0
v -704 -464 0
v -720 -464 0
v -720 -448 0
v -704 -448 0
v -608 -464 0
v -624 -464 0
v -624 -448 0
v -608 -448 0
v -592 -464 0
v -608 -464 0
v -608 -448 0
v -592 -448 0
v -1152 -480 0
v -1168 -480 0
v -1168 -464 0
v -1152 -464 0
v -720 -480 0
v -736 -480 0
v -736 -464 0
v -720 -464 0
v -688 -480 0
v -704 -480 0
v -704 -464 0
v -688 -464 0
v -608 -480 0
v -624 -480 0
v -624 -464 0
v -608 -464 0
v -608 -496 0
v -624 -496 0
v -624 -480 0
v -608 -480 0
v -832 -512 0
v -848 -512 0
v -848 -496 0
v -832 -496 0
v -704 -512 0
v -720 -512 0
v -720 -496 0
v -704 -496 0
v -624 -512 0
v -640 -512 0
v -640 -496 0
v -624 -496 0
v -608 -512 0
v -624 -512 0
v -624 -496 0
v -608 -496 0
v -1024 -528 0
v -1040 -528 0
v -1040 -512 0
v -1024 -512 0
v -624 -528 0
v -640 -528 0
v -640 -512 0
v -624 -512 0
v -784 -544 0
v -800 -544 0
v -800 -528 0
v -784 -528 0
v -640 -544 0
v -656 -544 0
v -656 -528 0
v -640 -528 0
v -624 -544 0
v -640 -544 0
v -640 -528 0
v -624 -528 0
v -1088 -560 0
v -1104 -560 0
v -1104 -544 0
v -1088 -544 0
v -880 -560 0
v -896 -560 0
v -896 -544 0
v -880 -544 0
v -688 -560 0
v -704 -560 0
v -704 -544 0
v -688 -544 0
v -656 -560 0
v -672 -560 0
v -672 -544 0
v -656 -544 0
v -640 -560 0
v -656 -560 0
v -656 -544 0
v -640 -544 0
v -976 -576 0
v -992 -576 0
v -992 -560 0
v -976 -560 0
v -656 -576 0
v -672 -576 0
v -672 -560 0
v -656 -560 0
v -1152 -592 0
v -1168 -592 0
v -1168 -576 0
v -1152 -576 0
v -928 -592 0
v -944 -592 0
v -944 -576 0
v -928 -576 0
v -864 -592 0
v -880 -592 0
v -880 -576 0
v -864 -576 0
v -800 -592 0
v -816 -592 0
v -816 -576 0
v -800 -576 0
v -672 -592 0
v -688 -592 0
v -688 -576 0
v -672 -576 0
v -656 -592 0
v -672 -592 0
v -672 -576 0
v -656 -576 0
v -1040 -608 0
v -1056 -608 0
v -1056 -592 0
v -1040 -592 0
v -704 -608 0
v -720 -608 0
v -720 -592 0
v -704 -592 0
v -688 -608 0
v -704 -608 0
v -704 -592 0
v -688 -592 0
v -672 -608 0
v -688 -608 0
v -688 -592 0
v -672 -592 0
v -944 -624 0
v -960 -624 0
v -960 -608 0
v -944 -608 0
v -768 -624 0
v -784 -624 0
v -784 -608 0
v -768 -608 0
v -752 -624 0
v -768 -624 0
v -768 -608 0
v -752 -608 0
v -736 -624 0
v -752 -624 0
v -752 -608 0
v -736 -608 0
v -720 -624 0
v -736 -624 0
v -736 -608 0
v -720 -608 0
v -704 -624 0
v -720 -624 0
v -720 -608 0
v -704 -608 0
v -816 -640 0
v -832 -640 0
v -832 -624 0
v -816 -624 0
v -800 -640 0
v -816 -640 0
v -816 -624 0
v -800 -624 0
v -784 -640 0
v -800 -640 0
v -800 -624 0
v -784 -624 0
v -768 -640 0
v -784 -640 0
v -784 -624 0
v -768 -624 0
v -1056 -656 0
v -1072 -656 0
v -1072 -640 0
v -1056 -640 0
v -848 -656 0
v -864 -656 0
v -864 -640 0
v -848 -640 0
v -832 -656 0
v -848 -656 0
v -848 -640 0
v -832 -640 0
v -816 -656 0
v -832 -656 0
v -832 -640 0
v -816 -640 0
v -864 -672 0
v -880 -672 0
v -880 -656 0
v -864 -656 0
v -848 -672 0
v -864 -672 0
v -864 -656 0
v -848 -656 0
v -1152 -688 0
v -1168 -688 0
v -1168 -672 0
v -1152 -672 0
v -1120 -688 0
v -1136 -688 0
v -1136 -672 0
v -1120 -672 0
v -992 -688 0
v -1008 -688 0
v -1008 -672 0
v -992 -672 0
v -896 -688 0
v -912 -688 0
v -912 -672 0
v -896 -672 0
v -880 -688 0
v -896 -688 0
v -896 -672 0
v -880 -672 0
v -864 -688 0
v -880 -688 0
v -880 -672 0
v -864 -672 0
v -928 -704 0
v -944 -704 0
v -944 -688 0
v -928 -688 0
v -912 -704 0
v -928 -704 0
v -928 -688 0
v -912 -688 0
v -896 -704 0
v -912 -704 0
v -912 -688 0
v -896 -688 0
v -1008 -720 0
v -1024 -720 0
v -1024 -704 0
v -1008 -704 0
v -992 -720 0
v -1008 -720 0
v -1008 -704 0
v -992 -704 0
v -976 -720 0
v -992 -720 0
v -992 -704 0
v -976 -704 0
v -960 -720 0
v -976 -720 0
v -976 -704 0
v -960 -704 0
v -944 -720 0
v -960 -720 0
v -960 -704 0
v -944 -704 0
v -928 -720 0
v -944 -720 0
v -944 -704 0
v -928 -704 0
v -1184 -736 0
v -1200 -736 0
v -1200 -720 0
v -1184 -720 0
v -1168 -736 0
v -1184 -736 0
v -1184 -720 0
v -1168 -720 0
v -1152 -736 0
v -1168 -736 0
v -1168 -720 0
v -1152 -720 0
v -1136 -736 0
v -1152 -736 0
v -1152 -720 0
v -1136 -720 0
v -1120 -736 0
v -1136 -736 0
v -1136 -720 0
v -1120 -720 0
v -1104 -736 0
v -1120 -736 0
v -1120 -720 0
v -1104 -720 0
v -1088 -736 0
v -1104 -736 0
v -1104 -720 0
v -1088 -720 0
v -1072 -736 0
v -1088 -736 0
v -1088 -720 0
v -1072 -720 0
v -1056 -736 0
v -1072 -736 0
v -1072 -720 0
v -1056 -720 0
v -1040 -736 0
v -1056 -736 0
v -1056 -720 0
v -1040 -720 0
v -1024 -736 0
v -1040 -736 0
v -1040 -720 0
v -1024 -720 0
v -1008 -736 0
v -1024 -736 0
v -1024 -720 0
v -1008 -720 0

# Texture cooridinates (Count = 4)
vt 0 0
vt 1 0
vt 1 1
vt 0 1

# Normal
vn 0 0 -1

# Mesh description
g Test-World_mesh_0006

# Faces
f 1/1/1 2/2/1 3/3/1 4/4/1
f 5/1/1 6/2/1 7/3/1 8/4/1
f 9/1/1 10/2/1 11/3/1 12/4/1
f 13/1/1 14/2/1 15/3/1 16/4/1
f 17/1/1 18/2/1 19/3/1 20/4/1
f 21/1/1 22/2/1 23/3/1 24/4/1
f 25/1/1 26/2/1 27/3/1 28/4/1
f 29/1/1 30/2/1 31/3/1 32/4/1
f 33/1/1 34/2/1 35/3/1 36/4/1
f 37/1/1 38/2/1 39/3/1 40/4/1
f 41/1/1 42/2/1 43/3/1 44/4/1
f 45/1/1 46/2/1 47/3/1 48/4/1
f 49/1/1 50/2/1 51/3/1 52/4/1
f 53/1/1 54/2/1 55/3/1 56/4/1
f 57/1/1 58/2/1 59/3/1 60/4/1
f 61/1/1 62/2/1 63/3/1 64/4/1
f 65/1/1 66/2/1 67/3/1 68/4/1
f 69/1/1 70/2/1 71/3/1 72/4/1
f 73/1/1 74/2/1 75/3/1 76/4/1
f 77/1/1 78/2/1 79/3/1 80/4/1
f 81/1/1 82/2/1 83/3/1 84/4/1
f 85/1/1 86/2/1 87/3/1 88/4/1
f 89/1/1 90/2/1 91/3/1 92/4/1
f 93/1/1 94/2/1 95/3/1 96/4/1
f 97/1/1 98/2/1 99/3/1 100/4/1
f 101/1/1 102/2/1 103/3/1 104/4/1
f 105/1/1 106/2/1 107/3/1 108/4/1
f 109/1/1 110/2/1 111/3/1 112/4/1
f 113/1/1 114/2/1 115/3/1 116/4/1
f 117/1/1 118/2/1 119/3/1 120/4/1
f 121/1/1 122/2/1 123/3/1 124/4/1
f 125/1/1 126/2/1 127/3/1 128/4/1
f 129/1/1 130/2/1 131/3/1 132/4/1
f 133/1/1 134/2/1 135/3/1 136/4/1
f 137/1/1 138/2/1 139/3/1 140/4/1
f 141/1/1 142/2/1 143/3/1 144/4/1
f 145/1/1 146/2/1 147/3/1 148/4/1
f 149/1/1 150/2/1 151/3/1 152/4/1
f 153/1/1 154/2/1 155/3/1 156/4/1
f 157/1/1 158/2/1 159/3/1 160/4/1
f 161/1/1 162/2/1 163/3/1 164/4/1
f 165/1/1 166/2/1 167/3/1 168/4/1
f 169/1/1 170/2/1 171/3/1 172/4/1
f 173/1/1 174/2/1 175/3/1 176/4/1
f 177/1/1 178/2/1 179/3/1 180/4/1
f 181/1/1 182/2/1 183/3/1 184/4/1
f 185/1/1 186/2/1 187/3/1 188/4/1
f 189/1/1 190/2/1 191/3/1 192/4/1
f 193/1/1 194/2/1 195/3/1 196/4/1
f 197/1/1 198/2/1 199/3/1 200/4/1
f 201/1/1 202/2/1 203/3/1 204/4/1
f 205/1/1 206/2/1 207/3/1 208/4/1
f 209/1/1 210/2/1 211/3/1 212/4/1
f 213/1/1 214/2/1 215/3/1 216/4/1
f 217/1/1 218/2/1 219/3/1 220/4/1
f 221/1/1 222/2/1 223/3/1 224/4/1
f 225/1/1 226/2/1 227/3/1 228/4/1
f 229/1/1 230/2/1 231/3/1 232/4/1
f 233/1/1 234/2/1 235/3/1 236/4/1
f 237/1/1 238/2/1 239/3/1 240/4/1
f 241/1/1 242/2/1 243/3/1 244/4/1
f 245/1/1 246/2/1 247/3/1 248/4/1
f 249/1/1 250/2/1 251/3/1 252/4/1
f 253/1/1 254/2/1 255/3/1 256/4/1
f 257/1/1 258/2/1 259/3/1 260/4/1
f 261/1/1 262/2/1 263/3/1 264/4/1
f 265/1/1 266/2/1 267/3/1 268/4/1
f 269/1/1 270/2/1 271/3/1 272/4/1
f 273/1/1 274/2/1 275/3/1 276/4/1
f 277/1/1 278/2/1 279/3/1 280/4/1
f 281/1/1 282/2/1 283/3/1 284/4/1
f 285/1/1 286/2/1 287/3/1 288/4/1
f 289/1/1 290/2/1 291/3/1 292/4/1
f 293/1/1 294/2/1 295/3/1 296/4/1
f 297/1/1 298/2/1 299/3/1 300/4/1
f 301/1/1 302/2/1 303/3/1 304/4/1
f 305/1/1 306/2/1 307/3/1 308/4/1
f 309/1/1 310/2/1 311/3/1 312/4/1
f 313/1/1 314/2/1 315/3/1 316/4/1
f 317/1/1 318/2/1 319/3/1 320/4/1
f 321/1/1 322/2/1 323/3/1 324/4/1
f 325/1/1 326/2/1 327/3/1 328/4/1
f 329/1/1 330/2/1 331/3/1 332/4/1
f 333/1/1 334/2/1 335/3/1 336/4/1
f 337/1/1 338/2/1 339/3/1 340/4/1
f 341/1/1 342/2/1 343/3/1 344/4/1
f 345/1/1 346/2/1 347/3/1 348/4/1
f 349/1/1 350/2/1 351/3/1 352/4/1
f 353/1/1 354/2/1 355/3/1 356/4/1
f 357/1/1 358/2/1 359/3/1 360/4/1
f 361/1/1 362/2/1 363/3/1 364/4/1
f 365/1/1 366/2/1 367/3/1 368/4/1
f 369/1/1 370/2/1 371/3/1 372/4/1
f 373/1/1 374/2/1 375/3/1 376/4/1
f 377/1/1 378/2/1 379/3/1 380/4/1
f 381/1/1 382/2/1 383/3/1 384/4/1
f 385/1/1 386/2/1 387/3/1 388/4/1
f 389/1/1 390/2/1 391/3/1 392/4/1
f 393/1/1 394/2/1 395/3/1 396/4/1
f 397/1/1 398/2/1 399/3/1 400/4/1
f 401/1/1 402/2/1 403/3/1 404/4/1
f 405/1/1 406/2/1 407/3/1 408/4/1
f 409/1/1 410/2/1 411/3/1 412/4/1
f 413/1/1 414/2/1 415/3/1 416/4/1
f 417/1/1 418/2/1 419/3/1 420/4/1
f 421/1/1 422/2/1 423/3/1 424/4/1
f 425/1/1 426/2/1 427/3/1 428/4/1
f 429/1/1 430/2/1 431/3/1 432/4/1
f 433/1/1 434/2/1 435/3/1 436/4/1
f 437/1/1 438/2/1 439/3/1 440/4/1
f 441/1/1 442/2/1 443/3/1 444/4/1
f 445/1/1 446/2/1 447/3/1 448/4/1
f 449/1/1 450/2/1 451/3/1 452/4/1
f 453/1/1 454/2/1 455/3/1 456/4/1
f 457/1/1 458/2/1 459/3/1 460/4/1
f 461/1/1 462/2/1 463/3/1 464/4/1
f 465/1/1 466/2/1 467/3/1 468/4/1
f 469/1/1 470/2/1 471/3/1 472/4/1
f 473/1/1 474/2/1 475/3/1 476/4/1
f 477/1/1 478/2/1 479/3/1 480/4/1
f 481/1/1 482/2/1 483/3/1 484/4/1
f 485/1/1 486/2/1 487/3/1 488/4/1
f 489/1/1 490/2/1 491/3/1 492/4/1
f 493/1/1 494/2/1 495/3/1 496/4/1
f 497/1/1 498/2/1 499/3/1 500/4/1
f 501/1/1 502/2/1 503/3/1 504/4/1
f 505/1/1 506/2/1 507/3/1 508/4/1
f 509/1/1 510/2/1 511/3/1 512/4/1
f 513/1/1 514/2/1 515/3/1 516/4/1
f 517/1/1 518/2/1 519/3/1 520/4/1
f 521/1/1 522/2/1 523/3/1 524/4/1
f 525/1/1 526/2/1 527/3/1 528/4/1
f 529/1/1 530/2/1 531/3/1 532/4/1
f 533/1/1 534/2/1 535/3/1 536/4/1
f 537/1/1 538/2/1 539/3/1 540/4/1
f 541/1/1 542/2/1 543/3/1 544/4/1
f 545/1/1 546/2/1 547/3/1 548/4/1
f 549/1/1 550/2/1 551/3/1 552/4/1
f 553/1/1 554/2/1 555/3/1 556/4/1
f 557/1/1 558/2/1 559/3/1 560/4/1
f 561/1/1 562/2/1 563/3/1 564/4/1
f 565/1/1 566/2/1 567/3/1 568/4/1
f 569/1/1 570/2/1 571/3/1 572/4/1
f 573/1/1 574/2/1 575/3/1 576/4/1
f 577/1/1 578/2/1 579/3/1 580/4/1
f 581/1/1 582/2/1 583/3/1 584/4/1
f 585/1/1 586/2/1 587/3/1 588/4/1
f 589/1/1 590/2/1 591/3/1 592/4/1
f 593/1/1 594/2/1 595/3/1 596/4/1
f 597/1/1 598/2/1 599/3/1 600/4/1
f 601/1/1 602/2/1 603/3/1 604/4/1
f 605/1/1 606/2/1 607/3/1 608/4/1
f 609/1/1 610/2/1 611/3/1 612/4/1
f 613/1/1 614/2/1 615/3/1 616/4/1
f 617/1/1 618/2/1 619/3/1 620/4/1
f 621/1/1 622/2/1 623/3/1 624/4/1
f 625/1/1 626/2/1 627/3/1 628/4/1
f 629/1/1 630/2/1 631/3/1 632/4/1
f 633/1/1 634/2/1 635/3/1 636/4/1
f 637/1/1 638/2/1 639/3/1 640/4/1
f 641/1/1 642/2/1 643/3/1 644/4/1
f 645/1/1 646/2/1 647/3/1 648/4/1
f 649/1/1 650/2/1 651/3/1 652/4/1
f 653/1/1 654/2/1 655/3/1 656/4/1
f 657/1/1 658/2/1 659/3/1 660/4/1
f 661/1/1 662/2/1 663/3/1 664/4/1
f 665/1/1 666/2/1 667/3/1 668/4/1
f 669/1/1 670/2/1 671/3/1 672/4/1
f 673/1/1 674/2/1 675/3/1 676/4/1
f 677/1/1 678/2/1 679/3/1 680/4/1
f 681/1/1 682/2/1 683/3/1 684/4/1
f 685/1/1 686/2/1 687/3/1 688/4/1
f 689/1/1 690/2/1 691/3/1 692/4/1
f 693/1/1 694/2/1 695/3/1 696/4/1
f 697/1/1 698/2/1 699/3/1 700/4/1
f 701/1/1 702/2/1 703/3/1 704/4/1
f 705/1/1 706/2/1 707/3/1 708/4/1
f 709/1/1 710/2/1 711/3/1 712/4/1
f 713/1/1 714/2/1 715/3/1 716/4/1
f 717/1/1 718/2/1 719/3/1 720/4/1
f 721/1/1 722/2/1 723/3/1 724/4/1
f 725/1/1 726/2/1 727/3/1 728/4/1
f 729/1/1 730/2/1 731/3/1 732/4/1
f 733/1/1 734/2/1 735/3/1 736/4/1
f 737/1/1 738/2/1 739/3/1 740/4/1
f 741/1/1 742/2/1 743/3/1 744/4/1
f 745/1/1 746/2/1 747/3/1 748/4/1
f 749/1/1 750/2/1 751/3/1 752/4/1
f 753/1/1 754/2/1 755/3/1 756/4/1
f 757/1/1 758/2/1 759/3/1 760/4/1
f 761/1/1 762/2/1 763/3/1 764/4/1
f 765/1/1 766/2/1 767/3/1 768/4/1
f 769/1/1 770/2/1 771/3/1 772/4/1
f 773/1/1 774/2/1 775/3/1 776/4/1
f 777/1/1 778/2/1 779/3/1 780/4/1
f 781/1/1 782/2/1 783/3/1 784/4/1
f 785/1/1 786/2/1 787/3/1 788/4/1
f 789/1/1 790/2/1 791/3/1 792/4/1
f 793/1/1 794/2/1 795/3/1 796/4/1

